<svg width="62" height="62" viewBox="0 0 62 62" fill="none" xmlns="http://www.w3.org/2000/svg">
<path d="M33.6289 5.83594H33.6309L33.8008 5.8457L33.8535 5.85547H33.8662L33.8867 5.86035L33.9121 5.86719L33.9385 5.87109L34.0068 5.88086L34.0664 5.9043L34.0947 5.90625L34.1143 5.91406L34.1465 5.92285L34.2207 5.94238L34.2725 5.9668L34.3037 5.97461L34.3164 5.98145L34.334 5.99023L34.3535 5.99902L34.4219 6.02832L34.4414 6.03906L34.4678 6.05371L34.4961 6.06641L34.5059 6.07031L34.5244 6.08301L34.5449 6.09668L34.5674 6.10938L34.6182 6.13672L34.6719 6.1748L34.6895 6.1875L34.6992 6.19336L34.7158 6.20898L34.751 6.23438L34.7861 6.25879L34.8516 6.31836L34.8701 6.33496L34.8818 6.34375L34.8926 6.35742L34.9375 6.39551L35.002 6.46875L35.0127 6.48047L35.0234 6.49121L35.0469 6.51562L35.0488 6.51855L35.0693 6.54297C35.2724 6.79174 35.4081 7.07853 35.4668 7.38965L35.4873 7.52441L35.4912 7.61719L35.4922 7.62695L35.501 7.77539V23.915H49.083C49.4192 23.915 49.7497 24.0031 50.041 24.1709C50.3323 24.3387 50.5745 24.5803 50.7432 24.8711C50.9117 25.1618 51.001 25.4921 51.002 25.8281C51.0028 26.1597 50.9165 26.4856 50.7539 26.7744L50.6279 26.9678L29.9658 55.3779L29.9648 55.3789C28.8768 56.8785 26.498 56.1078 26.498 54.25V38.085H12.916C12.5798 38.085 12.2494 37.9969 11.958 37.8291C11.6667 37.6613 11.4245 37.4197 11.2559 37.1289C11.0873 36.8381 10.998 36.508 10.9971 36.1719C10.9962 35.8381 11.0823 35.5099 11.2471 35.2197L11.375 35.0264L32.0225 6.63672L32.0479 6.60352L32.0527 6.59668L32.0889 6.54785L32.1553 6.47363L32.1611 6.46582L32.168 6.45898L32.1816 6.44043L32.1885 6.43555L32.21 6.41211L32.2236 6.39746L32.3047 6.3252L32.3125 6.31836L32.3604 6.27344L32.3633 6.27148L32.374 6.2627C32.5903 6.08572 32.8428 5.95888 33.1133 5.88965L33.1406 5.88574L33.2031 5.87305L33.2041 5.87402L33.3623 5.84473L33.4473 5.8418L33.4561 5.84082L33.583 5.83301L33.5928 5.83398V5.83301L33.6289 5.83594Z" stroke="#0684AC" stroke-width="1.33"/>
</svg>
