<svg width="50" height="50" viewBox="0 0 50 50" fill="none" xmlns="http://www.w3.org/2000/svg">
<g clip-path="url(#clip0_17344_36777)">
<path d="M27.6002 2C24.4126 2 21.9797 2.42419 18.624 3.78159C21.3086 2.84039 24.893 2.42419 26.6777 2.42419C36.1576 2.42419 44.3791 8.02347 48.2381 15.9134C45.0502 7.68412 37.478 2 27.6002 2Z" fill="#225B9E"/>
<path d="M49.9163 26.1787C49.9163 38.7825 39.8126 49 27.3491 49C23.0116 49 18.9599 47.7624 15.5203 45.6176H22.5673C24.1612 46.2004 24.924 46.2852 26.8458 46.2852C37.6876 46.2852 46.4767 37.8863 46.4767 25.6697C46.4767 14.1903 35.9901 5.09018 26.8458 4.8845C20.3861 4.8845 17.5337 5.39352 11.7451 8.44767C16.8626 4.2058 21.6231 3.35742 27.3491 3.35742C38.5908 3.35742 49.9163 13.5749 49.9163 26.1787Z" fill="#808080"/>
<path d="M39.0362 19.6462H21.4765L19.7147 24.991H27.1338L35.4867 25.0758C38.0667 25.0758 38.0035 26.1787 37.9196 27.1119C37.8357 28.0452 37.2278 29.2329 34.6478 29.2329H24.7483H19.0909L13.4336 43.9946H20.1343L23.7416 34.5563H36.6506C39.6813 34.5563 43.5404 31.5235 44.4632 27.1214C45.386 22.7192 42.7854 19.6462 39.0362 19.6462Z" fill="#808080"/>
<path d="M7.80201 34.5563H0L10.0671 11.2473H33.557L28.6913 16.8466H15.1846L7.80201 34.5563Z" fill="#225B9E"/>
</g>
<defs>
<clipPath id="clip0_17344_36777">
<rect width="50" height="47" fill="white" transform="translate(0 2)"/>
</clipPath>
</defs>
</svg>
