<svg width="209" height="44" viewBox="0 0 209 44" fill="none" xmlns="http://www.w3.org/2000/svg">
<g clip-path="url(#clip0_15714_33027)">
<path d="M139.125 8.89526L144.593 18.7436H142.475L141.404 16.737H134.902L133.83 18.7436H131.712L137.18 8.89526H139.125ZM140.406 14.8868L138.153 10.8593L135.887 14.8868H140.406Z" fill="#225B9E"/>
<path d="M165.915 8.89526H169.517C172.401 8.89526 174.076 10.7558 174.076 13.8055V13.8195C174.076 16.8831 172.401 18.7436 169.517 18.7436H165.915C163.032 18.7436 161.355 16.8831 161.355 13.8195V13.8055C161.355 10.7558 163.032 8.89526 165.915 8.89526ZM165.915 16.7431H169.517C171.3 16.7431 172.21 15.638 172.21 13.8195V13.8055C172.21 12.0009 171.3 10.8957 169.517 10.8957H165.915C164.133 10.8957 163.223 12.0009 163.223 13.8055V13.8195C163.223 15.638 164.133 16.7431 165.915 16.7431Z" fill="#225B9E"/>
<path d="M147.009 8.96387L157.475 8.9639V10.921H153.48V18.7436H151.165V10.921L147.009 10.921V8.96387Z" fill="#225B9E"/>
<path d="M112.712 18.7436H103.373V8.89526H112.712V10.8014H105.627V12.8664H112.068V14.7725H105.627V16.6787H112.712V18.7436Z" fill="#225B9E"/>
<path d="M194.348 18.7436H201.614C204.241 18.7436 205.297 17.5612 205.297 15.7584V15.7467C205.297 13.9322 204.241 12.7615 201.614 12.7615H196.602V8.89526H194.348V18.7436ZM203.043 15.7467V15.7584C203.043 16.361 202.911 16.8375 201.614 16.8375H196.602V14.6137H201.614C202.911 14.6137 203.043 15.1696 203.043 15.7467Z" fill="#225B9E"/>
<path d="M206.746 18.7436H209V8.89526H206.746V18.7436Z" fill="#225B9E"/>
<path fill-rule="evenodd" clip-rule="evenodd" d="M179.072 8.89526H185.912C188.498 8.89526 189.538 10.3095 189.538 12.4658V12.4798C189.538 14.6502 188.498 16.0504 185.912 16.0504H181.306V18.7436H179.072V8.89526ZM187.424 12.4658V12.4798C187.424 13.53 186.917 14.0481 185.64 14.0481H181.306V10.8976H185.64C186.917 10.8976 187.424 11.4297 187.424 12.4658Z" fill="#225B9E"/>
<path fill-rule="evenodd" clip-rule="evenodd" d="M117.784 8.89526H124.624C127.211 8.89526 128.25 10.3095 128.25 12.4658V12.4798C128.25 14.6502 127.211 16.0504 124.624 16.0504H120.017V18.7436H117.784V8.89526ZM126.136 12.4658V12.4798C126.136 13.53 125.628 14.0481 124.352 14.0481H120.017V10.8976H124.352C125.628 10.8976 126.136 11.4297 126.136 12.4658Z" fill="#225B9E"/>
<path d="M86.7881 18.7436V8.89526H88.8813V12.7075H95.805V8.89526H98.0593V18.7436H95.805V14.7725H88.8813V18.7436H86.7881Z" fill="#225B9E"/>
<path d="M72.2969 18.7436H81.6359V16.6787H74.5511V14.7725H80.9918V12.8664H74.5511V10.8014H81.6359V8.89526H72.2969V18.7436Z" fill="#225B9E"/>
<path d="M58.2881 18.7436H60.3813V10.9602H67.6271V8.89526H58.2881V18.7436Z" fill="#225B9E"/>
<path fill-rule="evenodd" clip-rule="evenodd" d="M58.9336 23.5283H73.4237C78.5934 23.5283 80.6709 25.9162 80.6709 29.5573V29.5809C80.6709 33.2456 78.5934 35.6099 73.4237 35.6099H63.602V39.8893H58.9336V23.5283ZM76.2418 29.6153V29.6337C76.2418 31.0102 75.2833 31.6894 72.8759 31.6894H63.602V27.5595H72.8759C75.2833 27.5595 76.2418 28.257 76.2418 29.6153Z" fill="#808080"/>
<path fill-rule="evenodd" clip-rule="evenodd" d="M91.6743 23.509H98.9693C104.81 23.509 108.203 26.6 108.203 31.6663V31.6895C108.203 36.7791 104.81 39.87 98.9693 39.87H91.6743C85.8334 39.87 82.4404 36.7791 82.4404 31.6895V31.6663C82.4404 26.6 85.8334 23.509 91.6743 23.509ZM98.7099 35.8989H91.9337C88.5794 35.8989 86.8684 34.3078 86.8684 31.6895V31.6694C86.8684 29.0713 88.5794 27.4802 91.9337 27.4802H98.7099C102.064 27.4802 103.775 29.0713 103.775 31.6694V31.6895C103.775 34.3078 102.064 35.8989 98.7099 35.8989Z" fill="#808080"/>
<path d="M132.489 25.531L130.102 28.5921C129.067 27.6975 128.02 27.4007 126.111 27.4007H119.739C116.427 27.4007 114.564 28.9865 114.564 31.6295V31.6498C114.587 34.3335 116.45 35.8989 119.739 35.8989H126.111C128.089 35.8989 129.09 35.6672 130.102 34.7929L132.489 37.8481C130.884 39.3123 128.877 39.87 125.832 39.87H119.292C113.602 39.87 110.297 36.7791 110.297 31.6895V31.6663C110.297 26.6 113.602 23.509 119.292 23.509H125.832C128.783 23.509 130.86 24.0204 132.489 25.531Z" fill="#808080"/>
<path d="M156.642 25.531L154.254 28.5921C153.219 27.6975 152.173 27.4007 150.264 27.4007H143.892C140.579 27.4007 138.716 28.9865 138.716 31.6295V31.6498C138.739 34.3335 140.602 35.8989 143.892 35.8989H150.264C152.242 35.8989 153.242 35.6672 154.254 34.7929L156.642 37.8481C155.036 39.3123 153.029 39.87 149.984 39.87H143.444C137.754 39.87 134.449 36.7791 134.449 31.6895V31.6663C134.449 26.6 137.754 23.509 143.444 23.509H149.984C152.935 23.509 155.013 24.0204 156.642 25.531Z" fill="#808080"/>
<path d="M190.241 33.6751V23.509H185.813V39.87H190.024L203.872 29.7834V39.87H208.356V23.509H204.089L190.241 33.6751Z" fill="#808080"/>
<path d="M163.835 33.6751V23.509H159.407V39.87H163.618L177.465 29.7834V39.87H181.95V23.509H177.683L163.835 33.6751Z" fill="#808080"/>
<path d="M26.4871 0C23.4281 0 21.0934 0.397112 17.873 1.66787C20.4493 0.786745 23.8891 0.397112 25.6019 0.397112C34.6993 0.397112 42.5891 5.63899 46.2925 13.0253C43.2332 5.3213 35.9665 0 26.4871 0Z" fill="#225B9E"/>
<path d="M47.9028 22.6354C47.9028 34.4347 38.2067 44 26.2461 44C22.0835 44 18.1952 42.8414 14.8944 40.8334H21.6571C23.1867 41.3791 23.9187 41.4585 25.763 41.4585C36.1674 41.4585 44.602 33.5957 44.602 22.1588C44.602 11.4122 34.5384 2.89291 25.763 2.70035C19.5639 2.70035 16.8266 3.17689 11.2715 6.0361C16.1825 2.06498 20.751 1.27075 26.2461 1.27075C37.0342 1.27075 47.9028 10.836 47.9028 22.6354Z" fill="#808080"/>
<path d="M37.4614 16.5198H20.61L18.9194 21.5234H26.0392L34.0551 21.6028C36.5311 21.6028 36.4704 22.6353 36.3898 23.5089C36.3093 24.3826 35.726 25.4945 33.25 25.4945H23.7499H18.3207L12.8916 39.314H19.3221L22.7838 30.4781H35.1721C38.0805 30.4781 41.7839 27.6389 42.6695 23.5178C43.5551 19.3966 41.0593 16.5198 37.4614 16.5198Z" fill="#808080"/>
<path d="M7.48729 30.4781H0L9.66102 8.65698H32.2034L27.5339 13.8989H14.572L7.48729 30.4781Z" fill="#225B9E"/>
</g>
<defs>
<clipPath id="clip0_15714_33027">
<rect width="209" height="44" fill="white"/>
</clipPath>
</defs>
</svg>
