<svg width="62" height="62" viewBox="0 0 62 62" fill="none" xmlns="http://www.w3.org/2000/svg">
<path d="M25.8324 53.6741C23.5839 53.1641 21.4244 52.3204 19.4258 51.1709" stroke="#0684AC" stroke-width="1.33333" stroke-linecap="round" stroke-linejoin="round"/>
<path d="M36.166 8.32617C41.3021 9.49919 45.8877 12.3812 49.1722 16.5004C52.4567 20.6195 54.2453 25.7318 54.2453 31.0001C54.2453 36.2684 52.4567 41.3806 49.1722 45.4998C45.8877 49.619 41.3021 52.501 36.166 53.674" stroke="#0684AC" stroke-width="1.33333" stroke-linecap="round" stroke-linejoin="round"/>
<path d="M11.8299 44.1569C10.4207 42.1096 9.35042 39.8486 8.66016 37.4609" stroke="#0684AC" stroke-width="1.33333" stroke-linecap="round" stroke-linejoin="round"/>
<path d="M8.07031 27.1251C8.48365 24.6709 9.27931 22.3459 10.3953 20.2147L10.8319 19.4268" stroke="#0684AC" stroke-width="1.33333" stroke-linecap="round" stroke-linejoin="round"/>
<path d="M17.8438 11.8292C20.2609 10.1652 22.9725 8.97644 25.834 8.32617" stroke="#0684AC" stroke-width="1.33333" stroke-linecap="round" stroke-linejoin="round"/>
<path d="M23.25 30.9997L28.4167 36.1663L38.75 25.833" stroke="#0684AC" stroke-width="1.33333" stroke-linecap="round" stroke-linejoin="round"/>
</svg>
