<svg width="62" height="62" viewBox="0 0 62 62" fill="none" xmlns="http://www.w3.org/2000/svg">
<path d="M51.3438 16.1977C52.2316 16.7027 52.9689 17.4351 53.4797 18.3196C53.9905 19.2041 54.2564 20.2087 54.25 21.2301V40.0471C54.25 42.137 53.1056 44.0642 51.2585 45.0794L33.821 56.1102C32.9565 56.5849 31.9862 56.8337 31 56.8337C30.0138 56.8337 29.0435 56.5849 28.179 56.1102L10.7415 45.0794C9.83776 44.5855 9.08332 43.8579 8.55706 42.9726C8.03081 42.0874 7.75207 41.077 7.75 40.0471V21.2275C7.75 19.1376 8.89442 17.213 10.7415 16.1977L28.179 5.91607C29.0691 5.42534 30.0689 5.16797 31.0853 5.16797C32.1016 5.16797 33.1014 5.42534 33.9915 5.91607L51.429 16.1977H51.3438Z" stroke="#0684AC" stroke-width="1.33" stroke-linecap="round" stroke-linejoin="round"/>
<path d="M23.25 31C23.25 33.0554 24.0665 35.0267 25.5199 36.4801C26.9733 37.9335 28.9446 38.75 31 38.75C33.0554 38.75 35.0267 37.9335 36.4801 36.4801C37.9335 35.0267 38.75 33.0554 38.75 31C38.75 28.9446 37.9335 26.9733 36.4801 25.5199C35.0267 24.0665 33.0554 23.25 31 23.25C28.9446 23.25 26.9733 24.0665 25.5199 25.5199C24.0665 26.9733 23.25 28.9446 23.25 31Z" stroke="#0684AC" stroke-width="1.33" stroke-linecap="round" stroke-linejoin="round"/>
</svg>
