<svg width="62" height="62" viewBox="0 0 62 62" fill="none" xmlns="http://www.w3.org/2000/svg">
<path d="M11.8453 29.4861C10.8764 28.5171 10.332 27.203 10.332 25.8327C10.332 24.4624 10.8764 23.1482 11.8453 22.1793C12.8143 21.2104 14.1284 20.666 15.4987 20.666C16.869 20.666 18.1831 21.2104 19.1521 22.1793C20.121 23.1482 20.6654 24.4624 20.6654 25.8327C20.6654 27.203 20.121 28.5171 19.1521 29.4861C18.1831 30.455 16.869 30.9993 15.4987 30.9993C14.1284 30.9993 12.8143 30.455 11.8453 29.4861Z" stroke="#0684AC" stroke-width="1.33333" stroke-linecap="round" stroke-linejoin="round"/>
<path d="M15.5 10.333V20.6663" stroke="#0684AC" stroke-width="1.33333" stroke-linecap="round" stroke-linejoin="round"/>
<path d="M15.5 31V51.6667" stroke="#0684AC" stroke-width="1.33333" stroke-linecap="round" stroke-linejoin="round"/>
<path d="M34.0992 37.1968C33.444 36.7062 32.6817 36.3784 31.875 36.2402C31.0683 36.102 30.2403 36.1574 29.4592 36.4019C28.6781 36.6464 27.9663 37.073 27.3824 37.6465C26.7984 38.2199 26.3591 38.9239 26.1005 39.7005C25.842 40.477 25.7716 41.3039 25.8952 42.1129C26.0188 42.922 26.3328 43.6901 26.8114 44.354C27.29 45.018 27.9195 45.5587 28.6481 45.9317C29.3766 46.3046 30.1833 46.4992 31.0017 46.4993" stroke="#0684AC" stroke-width="1.33333" stroke-linecap="round" stroke-linejoin="round"/>
<path d="M31 10.333V36.1663" stroke="#0684AC" stroke-width="1.33333" stroke-linecap="round" stroke-linejoin="round"/>
<path d="M31 46.5V51.6667" stroke="#0684AC" stroke-width="1.33333" stroke-linecap="round" stroke-linejoin="round"/>
<path d="M42.8453 21.737C41.8764 20.7681 41.332 19.4539 41.332 18.0837C41.332 16.7134 41.8764 15.3992 42.8453 14.4303C43.8143 13.4613 45.1284 12.917 46.4987 12.917C47.869 12.917 49.1831 13.4613 50.1521 14.4303C51.121 15.3992 51.6654 16.7134 51.6654 18.0837C51.6654 19.4539 51.121 20.7681 50.1521 21.737C49.1831 22.706 47.869 23.2503 46.4987 23.2503C45.1284 23.2503 43.8143 22.706 42.8453 21.737Z" stroke="#0684AC" stroke-width="1.33333" stroke-linecap="round" stroke-linejoin="round"/>
<path d="M46.5 10.333V12.9163" stroke="#0684AC" stroke-width="1.33333" stroke-linecap="round" stroke-linejoin="round"/>
<path d="M46.5 23.25V29.7083" stroke="#0684AC" stroke-width="1.33333" stroke-linecap="round" stroke-linejoin="round"/>
<path d="M43.918 49.0827C43.918 50.453 44.4623 51.7671 45.4313 52.7361C46.4002 53.705 47.7144 54.2493 49.0846 54.2493C50.4549 54.2493 51.7691 53.705 52.738 52.7361C53.707 51.7671 54.2513 50.453 54.2513 49.0827C54.2513 47.7124 53.707 46.3982 52.738 45.4293C51.7691 44.4604 50.4549 43.916 49.0846 43.916C47.7144 43.916 46.4002 44.4604 45.4313 45.4293C44.4623 46.3982 43.918 47.7124 43.918 49.0827Z" stroke="#0684AC" stroke-width="1.33333" stroke-linecap="round" stroke-linejoin="round"/>
<path d="M49.0859 40.042V43.917" stroke="#0684AC" stroke-width="1.33333" stroke-linecap="round" stroke-linejoin="round"/>
<path d="M49.0859 54.25V58.125" stroke="#0684AC" stroke-width="1.33333" stroke-linecap="round" stroke-linejoin="round"/>
<path d="M56.9143 44.5625L53.5586 46.5" stroke="#0684AC" stroke-width="1.33333" stroke-linecap="round" stroke-linejoin="round"/>
<path d="M44.6122 51.666L41.2539 53.6035" stroke="#0684AC" stroke-width="1.33333" stroke-linecap="round" stroke-linejoin="round"/>
<path d="M41.2539 44.5625L44.6122 46.5" stroke="#0684AC" stroke-width="1.33333" stroke-linecap="round" stroke-linejoin="round"/>
<path d="M53.5586 51.666L56.9169 53.6035" stroke="#0684AC" stroke-width="1.33333" stroke-linecap="round" stroke-linejoin="round"/>
</svg>
