<svg width="62" height="62" viewBox="0 0 62 62" fill="none" xmlns="http://www.w3.org/2000/svg">
<path d="M10.332 20.6663V15.4997C10.332 14.1294 10.8764 12.8152 11.8453 11.8463C12.8143 10.8774 14.1284 10.333 15.4987 10.333H20.6654" stroke="#0684AC" stroke-width="1.33333" stroke-linecap="round" stroke-linejoin="round"/>
<path d="M10.332 41.334V46.5007C10.332 47.8709 10.8764 49.1851 11.8453 50.154C12.8143 51.123 14.1284 51.6673 15.4987 51.6673H20.6654" stroke="#0684AC" stroke-width="1.33333" stroke-linecap="round" stroke-linejoin="round"/>
<path d="M41.332 10.333H46.4987C47.869 10.333 49.1831 10.8774 50.1521 11.8463C51.121 12.8152 51.6654 14.1294 51.6654 15.4997V20.6663" stroke="#0684AC" stroke-width="1.33333" stroke-linecap="round" stroke-linejoin="round"/>
<path d="M41.332 51.6673H46.4987C47.869 51.6673 49.1831 51.123 50.1521 50.154C51.121 49.1851 51.6654 47.8709 51.6654 46.5007V41.334" stroke="#0684AC" stroke-width="1.33333" stroke-linecap="round" stroke-linejoin="round"/>
<path d="M20.668 30.9993C20.668 30.3142 20.9401 29.6571 21.4246 29.1727C21.9091 28.6882 22.5662 28.416 23.2513 28.416H38.7513C39.4364 28.416 40.0935 28.6882 40.578 29.1727C41.0625 29.6571 41.3346 30.3142 41.3346 30.9993V38.7493C41.3346 39.4345 41.0625 40.0916 40.578 40.576C40.0935 41.0605 39.4364 41.3327 38.7513 41.3327H23.2513C22.5662 41.3327 21.9091 41.0605 21.4246 40.576C20.9401 40.0916 20.668 39.4345 20.668 38.7493V30.9993Z" stroke="#0684AC" stroke-width="1.33333" stroke-linecap="round" stroke-linejoin="round"/>
<path d="M25.832 28.4173V23.2507C25.832 21.8804 26.3764 20.5662 27.3453 19.5973C28.3143 18.6283 29.6284 18.084 30.9987 18.084C32.369 18.084 33.6831 18.6283 34.6521 19.5973C35.621 20.5662 36.1654 21.8804 36.1654 23.2507V28.4173" stroke="#0684AC" stroke-width="1.33333" stroke-linecap="round" stroke-linejoin="round"/>
</svg>
