<svg width="14" height="15" viewBox="0 0 14 15" fill="none" xmlns="http://www.w3.org/2000/svg">
<path d="M7.15887 14.2728C5.99978 14.2728 4.97516 14.1137 4.08501 13.7955C3.19485 13.4811 2.44675 13.0171 1.84069 12.4035C1.23463 11.7898 0.776293 11.0379 0.465687 10.1478C0.155081 9.25762 -0.000221908 8.23868 -0.000221908 7.09095C-0.000221908 5.9811 0.156975 4.98868 0.471369 4.11368C0.789551 3.23868 1.24978 2.49626 1.85205 1.88641C2.45811 1.27277 3.19296 0.804968 4.0566 0.482999C4.92402 0.161029 5.90508 4.3869e-05 6.99978 4.3869e-05C8.06417 4.3869e-05 8.99599 0.174286 9.79523 0.522771C10.5983 0.867468 11.2687 1.33527 11.8066 1.92618C12.3483 2.5133 12.7536 3.17429 13.0225 3.90913C13.2952 4.64398 13.4316 5.40156 13.4316 6.18186C13.4316 6.7311 13.4051 7.28792 13.3521 7.85232C13.299 8.41671 13.1873 8.93565 13.0168 9.40914C12.8464 9.87883 12.5831 10.2576 12.2271 10.5455C11.8748 10.8334 11.3975 10.9773 10.7952 10.9773C10.5301 10.9773 10.2384 10.9357 9.92023 10.8523C9.60205 10.769 9.31985 10.6307 9.07364 10.4375C8.82743 10.2444 8.6816 9.98489 8.63614 9.65914H8.56796C8.47705 9.87883 8.3369 10.0872 8.14751 10.2841C7.9619 10.4811 7.71758 10.6383 7.41455 10.7557C7.11531 10.8732 6.74978 10.9243 6.31796 10.9091C5.82554 10.8902 5.39182 10.7803 5.01682 10.5796C4.64182 10.375 4.32743 10.0985 4.07364 9.75004C3.82364 9.39777 3.63425 8.99057 3.50546 8.52845C3.38046 8.06254 3.31796 7.56065 3.31796 7.02277C3.31796 6.51141 3.39372 6.0436 3.54523 5.61936C3.69675 5.19512 3.90698 4.82391 4.17591 4.50573C4.44864 4.18754 4.76682 3.93376 5.13046 3.74436C5.49788 3.55118 5.89372 3.43186 6.31796 3.38641C6.69675 3.34853 7.04144 3.36557 7.35205 3.43754C7.66266 3.50573 7.91834 3.60989 8.1191 3.75004C8.31985 3.88641 8.44675 4.03792 8.49978 4.20459H8.56796V3.56823H9.77251V8.70459C9.77251 9.02277 9.86152 9.30307 10.0396 9.5455C10.2176 9.78792 10.4771 9.90914 10.818 9.90914C11.2043 9.90914 11.4998 9.77656 11.7043 9.51141C11.9127 9.24626 12.0547 8.83717 12.1305 8.28414C12.21 7.7311 12.2498 7.02277 12.2498 6.15914C12.2498 5.65156 12.1797 5.15156 12.0396 4.65913C11.9032 4.16292 11.6949 3.69891 11.4146 3.26709C11.138 2.83527 10.7877 2.45459 10.3634 2.12504C9.93917 1.7955 9.44107 1.53792 8.8691 1.35232C8.30091 1.16292 7.65508 1.06823 6.9316 1.06823C6.04144 1.06823 5.2441 1.20648 4.53955 1.483C3.83879 1.75573 3.2422 2.15535 2.74978 2.68186C2.26114 3.20459 1.88804 3.84095 1.63046 4.59095C1.37667 5.33717 1.24978 6.18565 1.24978 7.13641C1.24978 8.10232 1.37667 8.96027 1.63046 9.71027C1.88804 10.4603 2.26682 11.0928 2.76682 11.608C3.27061 12.1232 3.89372 12.5133 4.63614 12.7785C5.37857 13.0474 6.23463 13.1819 7.20432 13.1819C7.62099 13.1819 8.03198 13.1421 8.43728 13.0625C8.84258 12.983 9.20054 12.8959 9.51114 12.8012C9.82175 12.7065 10.0452 12.6364 10.1816 12.591L10.4998 13.6364C10.2649 13.7349 9.95811 13.8334 9.57932 13.9319C9.20432 14.0303 8.80281 14.1118 8.37478 14.1762C7.95054 14.2406 7.54523 14.2728 7.15887 14.2728ZM6.49978 9.75004C7.00735 9.75004 7.41834 9.64777 7.73273 9.44323C8.04713 9.23868 8.27629 8.92997 8.42023 8.51709C8.56417 8.10421 8.63614 7.58338 8.63614 6.95459C8.63614 6.31823 8.5566 5.82201 8.39751 5.46595C8.23841 5.10989 8.00357 4.85989 7.69296 4.71595C7.38235 4.57201 6.99978 4.50004 6.54523 4.50004C6.11341 4.50004 5.7441 4.61368 5.43728 4.84095C5.13425 5.06444 4.90129 5.36368 4.73841 5.73868C4.57932 6.10989 4.49978 6.5152 4.49978 6.95459C4.49978 7.43944 4.56417 7.89588 4.69296 8.32391C4.82175 8.74815 5.03198 9.09285 5.32364 9.358C5.61531 9.61936 6.00735 9.75004 6.49978 9.75004Z" fill="white"/>
</svg>
