<?xml version="1.0" encoding="utf-8"?><svg viewBox="0 0 1000 1000" xmlns="http://www.w3.org/2000/svg" xmlns:xlink="http://www.w3.org/1999/xlink"><style>:root>svg{display:none}:root>svg:target{display:block}</style><svg fill="none" viewBox="0 0 12 11" id="arrow" xmlns="http://www.w3.org/2000/svg"><path d="m6.602 10.182-.875-.864L9.33 5.716H0v-1.25h9.33L5.727.875 6.602 0l5.091 5.09-5.09 5.092Z" fill="#000"/></svg><svg fill="none" viewBox="0 0 24 26" id="cart" xmlns="http://www.w3.org/2000/svg"><path d="M7.5 8.135v-1.03c0-2.386 1.81-4.73 4.06-4.952 2.68-.276 4.94 1.962 4.94 4.751v1.464M15 23.332c4.02 0 4.74-1.707 4.95-3.786l.75-6.363c.27-2.588-.43-4.699-4.7-4.699H8c-4.27 0-4.97 2.11-4.7 4.699l.75 6.363c.21 2.079.93 3.786 4.95 3.786h6Z" stroke="#0684AC" stroke-width="1.5" stroke-linecap="round" stroke-linejoin="round"/><path d="M15.495 12.727h.009m-7.009 0h.008" stroke="#0684AC" stroke-width="2" stroke-linecap="round" stroke-linejoin="round"/></svg><svg fill="none" viewBox="0 0 25 25" id="catalog" xmlns="http://www.w3.org/2000/svg"><circle cx="12.019" cy="5.42" transform="rotate(45 12.019 5.42)" fill="#0684AC" r="3.833"/><circle cx="18.62" cy="12.021" transform="rotate(45 18.62 12.02)" fill="#0684AC" r="3.833"/><circle cx="12.021" cy="18.619" transform="rotate(45 12.021 18.62)" fill="#0684AC" r="3.833"/><circle cx="5.421" cy="12.018" transform="rotate(45 5.42 12.018)" fill="#0684AC" r="3.833"/></svg><svg fill="none" viewBox="0 0 24 26" id="compare" xmlns="http://www.w3.org/2000/svg"><path d="M2 23.332h20m-12.25 0h4.5V4.242c0-1.166-.45-2.12-1.8-2.12h-.9c-1.35 0-1.8.954-1.8 2.12v19.09Zm-6.75 0h4V10.605c0-1.166-.4-2.12-1.6-2.12h-.8c-1.2 0-1.6.954-1.6 2.12v12.727Zm14 0h4v-7.424c0-1.166-.4-2.12-1.6-2.12h-.8c-1.2 0-1.6.954-1.6 2.12v7.424Z" stroke="#0684AC" stroke-width="1.5" stroke-linecap="round" stroke-linejoin="round"/></svg><svg fill="none" viewBox="0 0 26 26" id="compare-fill" xmlns="http://www.w3.org/2000/svg"><path d="M2.167 23.834h21.667" stroke="#0684AC" stroke-width="1.5" stroke-linecap="round" stroke-linejoin="round"/><path d="M10.563 23.833h4.874v-19.5c0-1.192-.487-2.167-1.95-2.167h-.975c-1.462 0-1.95.976-1.95 2.167v19.5Zm-7.313 0h4.333v-13c0-1.191-.433-2.167-1.733-2.167h-.867c-1.3 0-1.733.976-1.733 2.167v13Zm15.167.001h4.333V16.25c0-1.191-.433-2.166-1.733-2.166h-.867c-1.3 0-1.733.975-1.733 2.166v7.584Z" fill="#0684AC" stroke="#0684AC" stroke-width="1.5" stroke-linecap="round" stroke-linejoin="round"/></svg><svg fill="none" viewBox="0 0 33 33" id="doc" xmlns="http://www.w3.org/2000/svg"><path d="M29.361 13.912v16.823L2.67 30.412v-27.5h16.015" stroke="#000" stroke-width="1.456" stroke-linecap="round" stroke-linejoin="round"/><path d="M24.022 13.75c-4.004 0-5.338-1.375-5.338-5.5v-5.5l10.676 11h-5.338Z" stroke="#000" stroke-width="1.456" stroke-linecap="round" stroke-linejoin="round"/></svg><svg fill="none" viewBox="0 0 24 23" id="favorite" xmlns="http://www.w3.org/2000/svg"><path d="M11.068 21.854C7.878 20.674.75 15.753.75 7.411.75 3.73 3.489.75 6.866.75c2.002 0 3.773 1.049 4.884 2.67C12.861 1.798 14.643.75 16.634.75c3.377 0 6.116 2.98 6.116 6.661 0 8.342-7.128 13.263-10.318 14.443-.374.143-.99.143-1.364 0Z" stroke="#0684AC" stroke-width="1.5" stroke-linecap="round" stroke-linejoin="round"/></svg><svg fill="none" viewBox="0 0 26 26" id="favorite-fill" xmlns="http://www.w3.org/2000/svg"><path d="M12.329 22.436C9.187 21.363 2.167 16.889 2.167 9.306c0-3.348 2.697-6.056 6.023-6.056 1.972 0 3.716.953 4.81 2.427a5.99 5.99 0 0 1 4.81-2.427c3.326 0 6.024 2.708 6.024 6.056 0 7.583-7.02 12.057-10.162 13.13-.368.13-.975.13-1.343 0Z" fill="#0684AC" stroke="#0684AC" stroke-width="1.5" stroke-linecap="round" stroke-linejoin="round"/></svg><svg fill="none" viewBox="0 0 62 62" id="features-atom" xmlns="http://www.w3.org/2000/svg"><path d="M31 31v.026m-7.309-7.331c10.075-10.09 21.54-14.996 25.575-10.961 4.035 4.037-.87 15.484-10.958 25.572-10.075 10.09-21.54 14.996-25.575 10.964-4.035-4.038.87-15.487 10.958-25.575Z" stroke="#0684AC" stroke-width="1.33" stroke-linecap="round" stroke-linejoin="round"/><path d="M23.694 38.309c-10.09-10.075-14.996-21.54-10.961-25.575 4.037-4.035 15.484.87 25.572 10.958 10.09 10.075 14.996 21.54 10.964 25.575-4.038 4.035-15.487-.87-25.575-10.958Z" stroke="#0684AC" stroke-width="1.33" stroke-linecap="round" stroke-linejoin="round"/></svg><svg fill="none" viewBox="0 0 62 62" id="features-dialog" xmlns="http://www.w3.org/2000/svg"><path d="M20.668 23.25h20.667M20.668 33.584h15.5M28.39 49.615l-7.723 4.635V46.5H15.5a7.75 7.75 0 0 1-7.75-7.75V18.083a7.75 7.75 0 0 1 7.75-7.75h31a7.75 7.75 0 0 1 7.75 7.75v15.5m-15.5 15.501 5.167 5.166L54.25 43.917" stroke="#0684AC" stroke-width="1.333" stroke-linecap="round" stroke-linejoin="round"/></svg><svg fill="none" viewBox="0 0 62 62" id="features-gear" xmlns="http://www.w3.org/2000/svg"><path d="M35.327 50.848c-1.1 4.536-7.554 4.536-8.654 0a4.453 4.453 0 0 0-6.647-2.754c-3.986 2.428-8.55-2.134-6.123-6.123a4.452 4.452 0 0 0-2.75-6.644c-4.537-1.1-4.537-7.554 0-8.654a4.453 4.453 0 0 0 2.753-6.647c-2.428-3.986 2.134-8.55 6.123-6.123 2.583 1.571 5.93.181 6.644-2.75 1.1-4.537 7.554-4.537 8.654 0a4.453 4.453 0 0 0 6.647 2.753c3.986-2.428 8.55 2.134 6.123 6.123a4.454 4.454 0 0 0 2.75 6.644c4.537 1.1 4.537 7.554 0 8.654a4.28 4.28 0 0 0-.836.295" stroke="#0684AC" stroke-width="1.333" stroke-linecap="round" stroke-linejoin="round"/><path d="M23.25 31a7.75 7.75 0 1 0 15.5 0 7.75 7.75 0 0 0-15.5 0Zm33.585 25.833L43.918 43.916m0 12.917 12.917-12.917" stroke="#0684AC" stroke-width="1.333" stroke-linecap="round" stroke-linejoin="round"/></svg><svg fill="none" viewBox="0 0 62 62" id="features-indicator" xmlns="http://www.w3.org/2000/svg"><path d="M11.845 29.486a5.167 5.167 0 1 1 7.308-7.307 5.167 5.167 0 0 1-7.308 7.307ZM15.5 10.333v10.333M15.5 31v20.667m18.6-14.47a5.166 5.166 0 1 0-3.098 9.302M31 10.333v25.833M31 46.5v5.167m11.845-29.93a5.167 5.167 0 1 1 7.307-7.307 5.167 5.167 0 0 1-7.307 7.307ZM46.5 10.333v2.583m0 10.334v6.458m-2.582 19.375a5.167 5.167 0 1 0 10.333 0 5.167 5.167 0 0 0-10.333 0Zm5.168-9.041v3.875m0 10.333v3.875m7.828-13.562L53.56 46.5m-8.948 5.166-3.358 1.938m0-9.041 3.358 1.937m8.947 5.166 3.358 1.938" stroke="#0684AC" stroke-width="1.333" stroke-linecap="round" stroke-linejoin="round"/></svg><svg fill="none" viewBox="0 0 62 62" id="features-lighting" xmlns="http://www.w3.org/2000/svg"><path d="M33.629 5.836h.002l.17.01.052.01h.013l.02.004.026.007.026.004.069.01.06.023.028.002.02.008.032.009.074.02.052.024.03.008.013.006.018.01.02.008.068.03.02.01.026.015.028.012.01.004.018.013.02.014.023.012.051.028.054.038.018.013.01.005.016.016.035.025.035.025.066.06.018.016.012.009.01.013.045.039.065.073.01.011.011.011.024.025.002.003.02.024c.203.249.34.536.398.847l.02.134.004.093.001.01.009.148v16.14h13.582a1.92 1.92 0 0 1 1.919 1.913c0 .332-.086.658-.248.946l-.126.194-20.662 28.41h-.001c-1.088 1.5-3.467.73-3.467-1.128V38.085H12.916a1.92 1.92 0 0 1-1.669-2.865l.128-.194 20.648-28.39.025-.032.005-.007.036-.05.066-.073.006-.008.007-.007.014-.019.006-.004.022-.024.014-.015.08-.072.008-.007.048-.045.003-.002.011-.008c.216-.177.469-.304.74-.373l.027-.004.062-.013.001.001.158-.03.085-.002.01-.001.126-.008.01.001v-.001l.036.003Z" stroke="#0684AC" stroke-width="1.33"/></svg><svg fill="none" viewBox="0 0 62 62" id="features-lock" xmlns="http://www.w3.org/2000/svg"><path d="M10.332 20.666V15.5a5.167 5.167 0 0 1 5.167-5.167h5.166M10.332 41.334v5.167a5.167 5.167 0 0 0 5.167 5.166h5.166m20.667-41.334h5.167a5.167 5.167 0 0 1 5.166 5.167v5.166M41.332 51.667h5.167a5.167 5.167 0 0 0 5.166-5.166v-5.167M20.668 31a2.583 2.583 0 0 1 2.583-2.584h15.5a2.583 2.583 0 0 1 2.584 2.583v7.75a2.583 2.583 0 0 1-2.584 2.584h-15.5a2.583 2.583 0 0 1-2.583-2.584V31Z" stroke="#0684AC" stroke-width="1.333" stroke-linecap="round" stroke-linejoin="round"/><path d="M25.832 28.417v-5.166a5.167 5.167 0 0 1 10.333 0v5.166" stroke="#0684AC" stroke-width="1.333" stroke-linecap="round" stroke-linejoin="round"/></svg><svg fill="none" viewBox="0 0 62 62" id="features-simple" xmlns="http://www.w3.org/2000/svg"><path d="M51.344 16.198a5.749 5.749 0 0 1 2.906 5.032v18.817a5.747 5.747 0 0 1-2.992 5.032L33.822 56.11a5.861 5.861 0 0 1-5.642 0L10.741 45.08a5.748 5.748 0 0 1-2.991-5.033v-18.82a5.743 5.743 0 0 1 2.992-5.03l17.437-10.28a6.02 6.02 0 0 1 5.813 0l17.437 10.28h-.085Z" stroke="#0684AC" stroke-width="1.33" stroke-linecap="round" stroke-linejoin="round"/><path d="M23.25 31a7.75 7.75 0 1 0 15.5 0 7.75 7.75 0 0 0-15.5 0Z" stroke="#0684AC" stroke-width="1.33" stroke-linecap="round" stroke-linejoin="round"/></svg><svg fill="none" viewBox="0 0 13 10" id="filter-arrow" xmlns="http://www.w3.org/2000/svg"><path d="m.398.3 6 8 6-8" stroke="#0684AC"/></svg><svg fill="none" viewBox="0 0 50 50" id="mail" xmlns="http://www.w3.org/2000/svg"><path d="M9 0H0v50h50V0H9Zm1.714 14.286h28.572c.214 0 .416.024.607.083L28.19 26.06a4.525 4.525 0 0 1-6.392 0l-11.69-11.69a2 2 0 0 1 .606-.084ZM8.417 16.06 17.369 25l-8.952 8.94a2.022 2.022 0 0 1-.084-.607V16.667c0-.215.025-.417.084-.607Zm33.166 0c.06.19.084.392.084.607v16.666c0 .215-.025.417-.084.607L32.62 25l8.963-8.94ZM19.048 26.679l1.06 1.072a6.883 6.883 0 0 0 4.88 2.01 6.863 6.863 0 0 0 4.88-2.01l1.073-1.072 8.952 8.952c-.19.06-.393.083-.607.083H10.714c-.214 0-.416-.024-.607-.083l8.94-8.952Z" fill="#000"/></svg><svg viewBox="0 0 1000 1000" id="max" xmlns="http://www.w3.org/2000/svg"><defs><linearGradient id="arb"><stop offset="0" stop-color="#00f"/><stop offset="1" stop-opacity="0"/></linearGradient><linearGradient id="ara"><stop offset="0" stop-color="#4cf"/><stop offset=".662" stop-color="#53e"/><stop offset="1" stop-color="#93d"/></linearGradient><linearGradient id="arc" x1="117.847" x2="1000" y1="760.536" y2="500" gradientUnits="userSpaceOnUse" href="#ara"/><radialGradient id="ard" cx="-87.392" cy="1166.116" r="500" fx="-87.392" fy="1166.116" gradientTransform="rotate(51.356 1551.476 559.302) scale(2.42703 1)" gradientUnits="userSpaceOnUse" href="#arb"/></defs><rect width="1000" height="1000" fill="url(#arc)" ry="0"/><rect width="1000" height="1000" fill="url(#ard)" ry="0"/><path fill="#fff" fill-rule="evenodd" d="M508.211 878.328c-75.007 0-109.864-10.95-170.453-54.75-38.325 49.275-159.686 87.783-164.979 21.9 0-49.456-10.95-91.248-23.36-136.873-14.782-56.21-31.572-118.807-31.572-209.508 0-216.626 177.754-379.597 388.357-379.597 210.785 0 375.947 171.001 375.947 381.604.707 207.346-166.595 376.118-373.94 377.224m3.103-571.585c-102.564-5.292-182.499 65.7-200.201 177.024-14.6 92.162 11.315 204.398 33.397 210.238 10.585 2.555 37.23-18.98 53.837-35.587a189.8 189.8 0 0 0 92.71 33.032c106.273 5.112 197.08-75.794 204.215-181.95 4.154-106.382-77.67-196.486-183.958-202.574Z" clip-rule="evenodd"/></svg><svg fill="none" viewBox="0 0 19 19" id="search" xmlns="http://www.w3.org/2000/svg"><path d="m13.666 13.667 3.75 3.75" stroke="#000" stroke-width="1.5" stroke-linecap="round" stroke-linejoin="round"/><path d="M15.75 8.25a7.5 7.5 0 1 0-15 0 7.5 7.5 0 0 0 15 0Z" stroke="#000" stroke-width="1.5" stroke-linejoin="round"/></svg><svg fill="none" viewBox="0 0 11 7" id="select-arrow" xmlns="http://www.w3.org/2000/svg"><path d="M.284 1.917 4.771 6.67c.097.105.213.188.34.245a.986.986 0 0 0 .805 0c.127-.057.243-.14.34-.245l4.435-4.752a1.14 1.14 0 0 0 .229-.365 1.19 1.19 0 0 0 0-.861 1.127 1.127 0 0 0-.23-.365A1.011 1.011 0 0 0 9.954 0a1.01 1.01 0 0 0-.737.326L5.514 4.293 1.81.326A1.012 1.012 0 0 0 1.08 0a.985.985 0 0 0-.402.083 1.043 1.043 0 0 0-.34.242 1.12 1.12 0 0 0-.242.356 1.187 1.187 0 0 0 .19 1.235Z" fill="#0684AC"/><path d="M.284 1.917 4.771 6.67c.097.105.213.188.34.245a.986.986 0 0 0 .805 0c.127-.057.243-.14.34-.245l4.435-4.752a1.14 1.14 0 0 0 .229-.365 1.19 1.19 0 0 0 0-.861 1.127 1.127 0 0 0-.23-.365A1.011 1.011 0 0 0 9.954 0a1.01 1.01 0 0 0-.737.326L5.514 4.293 1.81.326A1.012 1.012 0 0 0 1.08 0a.985.985 0 0 0-.402.083 1.043 1.043 0 0 0-.34.242 1.12 1.12 0 0 0-.242.356 1.187 1.187 0 0 0 .19 1.235Z" fill="#0684AC"/></svg><svg fill="none" viewBox="0 0 55 51" id="star" xmlns="http://www.w3.org/2000/svg"><path d="m27.105 0 6.4 19.348H54.21L37.459 31.305l6.398 19.348-16.752-11.958-16.751 11.958 6.398-19.348L0 19.348h20.707L27.105 0Z" fill="#0684AC"/></svg><svg fill="none" viewBox="0 0 40 36" id="swiper-arrow" xmlns="http://www.w3.org/2000/svg"><path d="m11 17.5 12.75-7.361V24.86L11 17.5Z" fill="#fff"/></svg><svg fill="none" viewBox="0 0 17 17" id="tel" xmlns="http://www.w3.org/2000/svg"><path d="M16.006 4.46A16.027 16.027 0 0 1 4.46 16.006C2.319 16.551.5 14.71.5 12.5v-1c0-.552.449-.995.998-1.05a9.942 9.942 0 0 0 2.656-.639l1.52 1.52a12.049 12.049 0 0 0 5.657-5.657l-1.52-1.52a9.941 9.941 0 0 0 .64-2.656C10.505.948 10.948.5 11.5.5h1c2.21 0 4.051 1.819 3.506 3.96Z" stroke="#0684AC" stroke-linecap="round" stroke-linejoin="round"/></svg><svg fill="none" viewBox="0 0 100 100" id="tg" xmlns="http://www.w3.org/2000/svg"><path fill="#1B8ADB" d="M0 0h100v100H0z"/><path d="M76.165 25.411 22.789 46.247c-3.602 1.323-3.602 3.638-.654 4.3l13.425 4.299L40.8 70.72c.654 1.654.327 2.315 1.964 2.315 1.31 0 1.965-.661 2.62-1.323l6.549-6.614L65.686 75.35c2.62 1.323 4.257.662 4.912-2.315l9.168-43.324c.983-3.638-1.31-5.623-3.602-4.3Zm-6.877 9.922L43.747 58.814l-.983 10.914-5.24-15.875 30.127-19.182c1.31-.992 2.62-.33 1.637.662Z" fill="#fff"/></svg><svg fill="none" viewBox="0 0 8 9" id="tick" xmlns="http://www.w3.org/2000/svg"><path d="M.387 3.54 3.42 7.246l3.967-7" stroke="#F4F4F4"/></svg><svg fill="none" viewBox="0 0 24 26" id="user" xmlns="http://www.w3.org/2000/svg"><path clip-rule="evenodd" d="M12 12.727c-2.761 0-5-2.374-5-5.303S9.239 2.12 12 2.12s5 2.374 5 5.303-2.239 5.303-5 5.303Z" stroke="#0684AC" stroke-width="1.5" stroke-linecap="round" stroke-linejoin="round"/><path d="M20.59 23.332c0-4.104-3.85-7.424-8.59-7.424s-8.59 3.32-8.59 7.424" stroke="#0684AC" stroke-width="1.5" stroke-linecap="round" stroke-linejoin="round"/></svg><svg fill="none" viewBox="0 0 11 11" id="view-grid" xmlns="http://www.w3.org/2000/svg"><g clip-path="url(#baa)" fill="#0684AC"><path d="M5 0H0v5h5V0Zm0 6H0v5h5V6Zm6 0H6v5h5V6ZM9 0H6v5h5V0H9Z"/></g><defs><clipPath id="baa"><path fill="#fff" d="M0 0h11v11H0z"/></clipPath></defs></svg><svg fill="none" viewBox="0 0 17 11" id="view-list" xmlns="http://www.w3.org/2000/svg"><g clip-path="url(#bba)" fill="#F0F0F0"><path d="M17 6H6v5h11V6ZM5 6H0v5h5V6Zm0-6H0v5h5V0Zm12 0H6v5h11V0Z"/></g><defs><clipPath id="bba"><path fill="#fff" d="M0 0h17v11H0z"/></clipPath></defs></svg></svg>