<?xml version="1.0" encoding="utf-8"?><svg viewBox="0 0 1000 1000" xmlns="http://www.w3.org/2000/svg" xmlns:xlink="http://www.w3.org/1999/xlink"><style>:root>svg{display:none}:root>svg:target{display:block}</style><svg fill="none" viewBox="0 0 24 26" id="cart" xmlns="http://www.w3.org/2000/svg"><path d="M7.5 8.135v-1.03c0-2.386 1.81-4.73 4.06-4.952 2.68-.276 4.94 1.962 4.94 4.751v1.464M15 23.332c4.02 0 4.74-1.707 4.95-3.786l.75-6.363c.27-2.588-.43-4.699-4.7-4.699H8c-4.27 0-4.97 2.11-4.7 4.699l.75 6.363c.21 2.079.93 3.786 4.95 3.786h6Z" stroke="#0684AC" stroke-width="1.5" stroke-linecap="round" stroke-linejoin="round"/><path d="M15.495 12.727h.009m-7.009 0h.008" stroke="#0684AC" stroke-width="2" stroke-linecap="round" stroke-linejoin="round"/></svg><svg fill="none" viewBox="0 0 25 25" id="catalog" xmlns="http://www.w3.org/2000/svg"><circle cx="12.019" cy="5.42" transform="rotate(45 12.019 5.42)" fill="#0684AC" r="3.833"/><circle cx="18.62" cy="12.021" transform="rotate(45 18.62 12.02)" fill="#0684AC" r="3.833"/><circle cx="12.021" cy="18.619" transform="rotate(45 12.021 18.62)" fill="#0684AC" r="3.833"/><circle cx="5.421" cy="12.018" transform="rotate(45 5.42 12.018)" fill="#0684AC" r="3.833"/></svg><svg fill="none" viewBox="0 0 24 26" id="compare" xmlns="http://www.w3.org/2000/svg"><path d="M2 23.332h20m-12.25 0h4.5V4.242c0-1.166-.45-2.12-1.8-2.12h-.9c-1.35 0-1.8.954-1.8 2.12v19.09Zm-6.75 0h4V10.605c0-1.166-.4-2.12-1.6-2.12h-.8c-1.2 0-1.6.954-1.6 2.12v12.727Zm14 0h4v-7.424c0-1.166-.4-2.12-1.6-2.12h-.8c-1.2 0-1.6.954-1.6 2.12v7.424Z" stroke="#0684AC" stroke-width="1.5" stroke-linecap="round" stroke-linejoin="round"/></svg><svg fill="none" viewBox="0 0 26 26" id="compare-fill" xmlns="http://www.w3.org/2000/svg"><path d="M2.167 23.834h21.667" stroke="#0684AC" stroke-width="1.5" stroke-linecap="round" stroke-linejoin="round"/><path d="M10.563 23.833h4.874v-19.5c0-1.192-.487-2.167-1.95-2.167h-.975c-1.462 0-1.95.976-1.95 2.167v19.5Zm-7.313 0h4.333v-13c0-1.191-.433-2.167-1.733-2.167h-.867c-1.3 0-1.733.976-1.733 2.167v13Zm15.167.001h4.333V16.25c0-1.191-.433-2.166-1.733-2.166h-.867c-1.3 0-1.733.975-1.733 2.166v7.584Z" fill="#0684AC" stroke="#0684AC" stroke-width="1.5" stroke-linecap="round" stroke-linejoin="round"/></svg><svg fill="none" viewBox="0 0 24 23" id="favorite" xmlns="http://www.w3.org/2000/svg"><path d="M11.068 21.854C7.878 20.674.75 15.753.75 7.411.75 3.73 3.489.75 6.866.75c2.002 0 3.773 1.049 4.884 2.67C12.861 1.798 14.643.75 16.634.75c3.377 0 6.116 2.98 6.116 6.661 0 8.342-7.128 13.263-10.318 14.443-.374.143-.99.143-1.364 0Z" stroke="#0684AC" stroke-width="1.5" stroke-linecap="round" stroke-linejoin="round"/></svg><svg fill="none" viewBox="0 0 26 26" id="favorite-fill" xmlns="http://www.w3.org/2000/svg"><path d="M12.329 22.436C9.187 21.363 2.167 16.889 2.167 9.306c0-3.348 2.697-6.056 6.023-6.056 1.972 0 3.716.953 4.81 2.427a5.99 5.99 0 0 1 4.81-2.427c3.326 0 6.024 2.708 6.024 6.056 0 7.583-7.02 12.057-10.162 13.13-.368.13-.975.13-1.343 0Z" fill="#0684AC" stroke="#0684AC" stroke-width="1.5" stroke-linecap="round" stroke-linejoin="round"/></svg><svg fill="none" viewBox="0 0 50 50" id="mail" xmlns="http://www.w3.org/2000/svg"><path d="M9 0H0v50h50V0H9Zm1.714 14.286h28.572c.214 0 .416.024.607.083L28.19 26.06a4.525 4.525 0 0 1-6.392 0l-11.69-11.69a2 2 0 0 1 .606-.084ZM8.417 16.06 17.369 25l-8.952 8.94a2.022 2.022 0 0 1-.084-.607V16.667c0-.215.025-.417.084-.607Zm33.166 0c.06.19.084.392.084.607v16.666c0 .215-.025.417-.084.607L32.62 25l8.963-8.94ZM19.048 26.679l1.06 1.072a6.883 6.883 0 0 0 4.88 2.01 6.863 6.863 0 0 0 4.88-2.01l1.073-1.072 8.952 8.952c-.19.06-.393.083-.607.083H10.714c-.214 0-.416-.024-.607-.083l8.94-8.952Z" fill="#000"/></svg><svg viewBox="0 0 1000 1000" id="max" xmlns="http://www.w3.org/2000/svg"><defs><linearGradient id="hb"><stop offset="0" stop-color="#00f"/><stop offset="1" stop-opacity="0"/></linearGradient><linearGradient id="ha"><stop offset="0" stop-color="#4cf"/><stop offset=".662" stop-color="#53e"/><stop offset="1" stop-color="#93d"/></linearGradient><linearGradient id="hc" x1="117.847" x2="1000" y1="760.536" y2="500" gradientUnits="userSpaceOnUse" href="#ha"/><radialGradient id="hd" cx="-87.392" cy="1166.116" r="500" fx="-87.392" fy="1166.116" gradientTransform="rotate(51.356 1551.476 559.302) scale(2.42703 1)" gradientUnits="userSpaceOnUse" href="#hb"/></defs><rect width="1000" height="1000" fill="url(#hc)" ry="0"/><rect width="1000" height="1000" fill="url(#hd)" ry="0"/><path fill="#fff" fill-rule="evenodd" d="M508.211 878.328c-75.007 0-109.864-10.95-170.453-54.75-38.325 49.275-159.686 87.783-164.979 21.9 0-49.456-10.95-91.248-23.36-136.873-14.782-56.21-31.572-118.807-31.572-209.508 0-216.626 177.754-379.597 388.357-379.597 210.785 0 375.947 171.001 375.947 381.604.707 207.346-166.595 376.118-373.94 377.224m3.103-571.585c-102.564-5.292-182.499 65.7-200.201 177.024-14.6 92.162 11.315 204.398 33.397 210.238 10.585 2.555 37.23-18.98 53.837-35.587a189.8 189.8 0 0 0 92.71 33.032c106.273 5.112 197.08-75.794 204.215-181.95 4.154-106.382-77.67-196.486-183.958-202.574Z" clip-rule="evenodd"/></svg><svg fill="none" viewBox="0 0 19 19" id="search" xmlns="http://www.w3.org/2000/svg"><path d="m13.666 13.667 3.75 3.75" stroke="#000" stroke-width="1.5" stroke-linecap="round" stroke-linejoin="round"/><path d="M15.75 8.25a7.5 7.5 0 1 0-15 0 7.5 7.5 0 0 0 15 0Z" stroke="#000" stroke-width="1.5" stroke-linejoin="round"/></svg><svg fill="none" viewBox="0 0 11 7" id="select-arrow" xmlns="http://www.w3.org/2000/svg"><path d="M.284 1.917 4.771 6.67c.097.105.213.188.34.245a.986.986 0 0 0 .805 0c.127-.057.243-.14.34-.245l4.435-4.752a1.14 1.14 0 0 0 .229-.365 1.19 1.19 0 0 0 0-.861 1.127 1.127 0 0 0-.23-.365A1.011 1.011 0 0 0 9.954 0a1.01 1.01 0 0 0-.737.326L5.514 4.293 1.81.326A1.012 1.012 0 0 0 1.08 0a.985.985 0 0 0-.402.083 1.043 1.043 0 0 0-.34.242 1.12 1.12 0 0 0-.242.356 1.187 1.187 0 0 0 .19 1.235Z" fill="#0684AC"/><path d="M.284 1.917 4.771 6.67c.097.105.213.188.34.245a.986.986 0 0 0 .805 0c.127-.057.243-.14.34-.245l4.435-4.752a1.14 1.14 0 0 0 .229-.365 1.19 1.19 0 0 0 0-.861 1.127 1.127 0 0 0-.23-.365A1.011 1.011 0 0 0 9.954 0a1.01 1.01 0 0 0-.737.326L5.514 4.293 1.81.326A1.012 1.012 0 0 0 1.08 0a.985.985 0 0 0-.402.083 1.043 1.043 0 0 0-.34.242 1.12 1.12 0 0 0-.242.356 1.187 1.187 0 0 0 .19 1.235Z" fill="#0684AC"/></svg><svg fill="none" viewBox="0 0 17 17" id="tel" xmlns="http://www.w3.org/2000/svg"><path d="M16.006 4.46A16.027 16.027 0 0 1 4.46 16.006C2.319 16.551.5 14.71.5 12.5v-1c0-.552.449-.995.998-1.05a9.942 9.942 0 0 0 2.656-.639l1.52 1.52a12.049 12.049 0 0 0 5.657-5.657l-1.52-1.52a9.941 9.941 0 0 0 .64-2.656C10.505.948 10.948.5 11.5.5h1c2.21 0 4.051 1.819 3.506 3.96Z" stroke="#0684AC" stroke-linecap="round" stroke-linejoin="round"/></svg><svg fill="none" viewBox="0 0 100 100" id="tg" xmlns="http://www.w3.org/2000/svg"><path fill="#1B8ADB" d="M0 0h100v100H0z"/><path d="M76.165 25.411 22.789 46.247c-3.602 1.323-3.602 3.638-.654 4.3l13.425 4.299L40.8 70.72c.654 1.654.327 2.315 1.964 2.315 1.31 0 1.965-.661 2.62-1.323l6.549-6.614L65.686 75.35c2.62 1.323 4.257.662 4.912-2.315l9.168-43.324c.983-3.638-1.31-5.623-3.602-4.3Zm-6.877 9.922L43.747 58.814l-.983 10.914-5.24-15.875 30.127-19.182c1.31-.992 2.62-.33 1.637.662Z" fill="#fff"/></svg><svg fill="none" viewBox="0 0 24 26" id="user" xmlns="http://www.w3.org/2000/svg"><path clip-rule="evenodd" d="M12 12.727c-2.761 0-5-2.374-5-5.303S9.239 2.12 12 2.12s5 2.374 5 5.303-2.239 5.303-5 5.303Z" stroke="#0684AC" stroke-width="1.5" stroke-linecap="round" stroke-linejoin="round"/><path d="M20.59 23.332c0-4.104-3.85-7.424-8.59-7.424s-8.59 3.32-8.59 7.424" stroke="#0684AC" stroke-width="1.5" stroke-linecap="round" stroke-linejoin="round"/></svg></svg>